<?xml version="1.0" standalone="no"?>
<!DOCTYPE svg PUBLIC "-//W3C//DTD SVG 20010904//EN"
 "http://www.w3.org/TR/2001/REC-SVG-20010904/DTD/svg10.dtd">
<svg version="1.0" xmlns="http://www.w3.org/2000/svg"
 width="1563.000000pt" height="1563.000000pt" viewBox="0 0 1563.000000 1563.000000"
 preserveAspectRatio="xMidYMid meet">

<g transform="translate(0.000000,1563.000000) scale(0.100000,-0.100000)"
fill="#000000" stroke="none">
<path d="M3550 9615 c-36 -8 -127 -21 -203 -29 -159 -18 -235 -36 -323 -76
-218 -99 -363 -276 -479 -585 -193 -515 -164 -1110 79 -1600 85 -172 166 -285
306 -425 171 -172 332 -275 543 -345 134 -45 245 -61 512 -75 167 -9 256 -19
367 -41 167 -33 238 -35 400 -14 279 37 469 122 650 291 330 309 552 237 920
-297 207 -300 266 -360 387 -396 77 -22 130 -13 272 47 66 28 143 55 170 59
28 5 54 12 58 17 14 16 79 177 92 226 18 73 10 82 -65 76 -50 -4 -90 -18 -178
-59 -250 -117 -317 -81 -590 316 -76 110 -162 228 -192 263 -157 179 -294 250
-460 239 -134 -8 -223 -57 -388 -213 -111 -105 -217 -166 -364 -209 -73 -22
-116 -28 -244 -32 l-155 -5 55 48 c265 230 405 524 441 927 39 439 -124 999
-395 1357 -137 181 -348 349 -547 436 -163 72 -308 106 -469 110 -89 2 -157
-2 -200 -11z m349 -70 c158 -30 350 -108 491 -199 86 -56 240 -203 316 -301
247 -324 387 -759 387 -1205 0 -316 -63 -538 -217 -770 -64 -96 -187 -224
-263 -275 -39 -25 -103 -49 -103 -38 0 12 100 123 205 228 97 96 117 122 162
210 87 170 122 313 144 583 28 346 -52 666 -262 1046 -136 247 -222 353 -358
445 -67 46 -203 115 -286 146 -54 21 -399 126 -450 138 -55 13 164 5 234 -8z
m-333 -40 c263 -42 514 -174 714 -375 126 -125 212 -250 304 -440 154 -318
219 -592 219 -920 0 -259 -39 -441 -138 -648 -72 -149 -139 -245 -244 -345
-96 -91 -160 -128 -301 -177 -85 -30 -109 -34 -235 -38 -213 -7 -382 33 -575
134 -617 326 -941 1128 -779 1929 46 225 163 501 268 631 169 208 452 300 767
249z m632 -159 c45 -23 46 -24 22 -31 -20 -5 -41 4 -95 40 -39 26 -72 49 -75
52 -9 8 99 -36 148 -61z m166 -90 c39 -24 82 -56 94 -69 26 -28 27 -27 -47
-42 -31 -7 -38 -3 -102 61 -38 38 -69 72 -69 76 0 3 10 9 23 11 12 2 24 5 26
6 2 0 36 -19 75 -43z m206 -201 c30 -41 56 -79 58 -84 3 -10 -78 -26 -96 -20
-13 5 -122 152 -117 157 5 5 64 20 85 21 8 0 40 -33 70 -74z m149 -226 c28
-51 50 -93 49 -94 -2 -1 -25 -9 -52 -18 -49 -17 -66 -15 -66 6 0 6 -22 51 -50
99 -27 48 -50 90 -50 93 0 3 26 5 58 5 l58 0 53 -91z m100 -194 c45 -99 46
-104 18 -114 -14 -5 -41 -13 -60 -16 l-35 -7 -31 83 c-17 45 -30 83 -28 85 6
6 81 33 94 33 7 1 26 -28 42 -64z m96 -245 c19 -57 35 -109 35 -116 0 -6 -20
-14 -45 -17 -25 -4 -55 -9 -67 -12 -22 -6 -25 1 -52 105 -16 61 -27 112 -25
114 6 5 114 33 117 31 1 -1 18 -49 37 -105z m50 -182 c10 -47 25 -154 25 -185
0 -30 -3 -33 -54 -47 -30 -9 -58 -16 -63 -16 -12 0 -51 240 -41 246 9 6 85 21
110 23 11 1 20 -8 23 -21z m28 -279 c3 -12 3 -68 0 -125 l-6 -104 -41 -11
c-23 -5 -49 -13 -59 -15 -16 -5 -17 4 -15 122 l3 128 40 12 c58 18 72 17 78
-7z m-18 -311 c-11 -73 -46 -218 -53 -222 -4 -2 -27 -7 -51 -11 l-44 -7 7 28
c4 16 13 73 20 127 7 53 15 99 17 101 5 4 80 24 97 25 11 1 12 -9 7 -41z m-76
-295 c-28 -75 -88 -180 -142 -248 -33 -41 -62 -73 -64 -71 -2 2 10 32 27 66
17 33 46 107 65 162 18 56 40 105 47 109 7 5 28 9 45 9 31 0 32 -1 22 -27z
m978 -179 l30 -6 -38 -86 -38 -87 -76 -3 c-41 -2 -75 0 -75 4 0 4 10 43 21 86
17 63 25 79 43 83 11 2 30 6 41 8 32 7 60 7 92 1z m126 -40 c29 -15 69 -40 89
-56 l37 -29 -40 -80 c-22 -43 -42 -79 -44 -79 -2 0 -23 13 -47 29 -24 15 -64
36 -90 46 l-47 17 36 77 c19 42 37 82 40 89 7 16 5 16 66 -14z m-338 -49 c-7
-28 -16 -62 -19 -77 -5 -20 -15 -29 -43 -38 -21 -7 -49 -19 -61 -27 -13 -8
-25 -13 -27 -11 -6 6 17 92 28 106 13 17 129 103 133 99 2 -1 -3 -25 -11 -52z
m566 -148 l49 -58 -29 -39 c-15 -22 -34 -53 -41 -70 l-13 -31 -59 57 c-32 32
-58 65 -58 72 0 8 16 45 36 83 42 79 37 80 115 -14z m-765 -24 c-20 -39 -196
-211 -196 -192 0 8 7 38 15 66 13 45 22 55 77 91 35 22 74 52 88 67 30 32 40
13 16 -32z m888 -137 c25 -36 46 -70 46 -76 0 -6 -19 -36 -42 -66 l-43 -55
-23 28 c-12 15 -34 44 -48 64 -24 35 -25 38 -10 73 18 44 54 96 66 96 4 0 29
-29 54 -64z m-1109 -3 c-8 -27 -15 -58 -15 -69 0 -12 -11 -29 -23 -37 -35 -23
-148 -69 -155 -63 -2 3 8 39 23 80 l29 74 75 30 c42 17 77 31 78 31 1 1 -4
-20 -12 -46z m-213 -108 c-16 -42 -36 -82 -46 -87 -21 -12 -200 -57 -205 -52
-2 2 11 44 28 93 l33 89 65 7 c35 4 83 12 106 19 23 7 43 12 45 11 1 -1 -10
-37 -26 -80z m-505 31 c-3 -8 -18 -50 -33 -93 -15 -43 -28 -79 -30 -81 -4 -6
-124 21 -124 28 0 8 74 115 98 143 20 22 97 25 89 3z m244 -83 l-37 -98 -118
-3 -118 -3 7 23 c4 13 21 58 37 101 l29 77 119 0 118 0 -37 -97z m-407 40
c-69 -107 -63 -102 -102 -97 -89 12 -89 12 -6 53 44 22 88 46 99 55 28 22 30
20 9 -11z m2123 -65 c32 -46 60 -87 62 -91 2 -5 -21 -33 -50 -63 l-53 -53 -53
79 c-29 44 -53 85 -53 91 0 6 18 31 40 56 22 25 40 50 40 54 0 18 10 7 67 -73z
m158 -192 l66 -64 -58 -66 -58 -65 -28 27 c-16 15 -45 49 -64 75 l-36 49 54
54 c29 30 54 54 56 54 1 0 32 -29 68 -64z m585 7 c0 -5 -15 -44 -33 -87 l-33
-80 -54 -16 c-30 -9 -79 -27 -108 -40 -29 -12 -55 -20 -59 -17 -3 4 6 40 22
82 30 83 34 86 185 141 71 26 80 28 80 17z m-343 -109 l63 7 -30 -82 c-16 -45
-31 -83 -32 -84 -2 -1 -18 -7 -37 -14 -66 -22 -154 -8 -205 33 l-27 21 61 72
60 72 43 -15 c30 -11 60 -14 104 -10z"/>
<path d="M3335 9425 c-33 -7 -86 -24 -117 -38 -60 -27 -152 -86 -145 -93 2 -2
42 13 88 35 123 57 216 75 358 68 127 -6 211 -26 349 -83 47 -19 87 -33 89
-30 7 7 -92 62 -172 95 -138 58 -315 76 -450 46z"/>
<path d="M3020 9115 c-94 -30 -167 -124 -190 -244 -22 -120 35 -285 136 -391
142 -149 312 -165 433 -40 161 166 70 541 -159 653 -69 34 -157 42 -220 22z
m177 -79 c71 -33 138 -103 176 -184 30 -63 32 -74 32 -177 0 -97 -3 -115 -23
-150 -40 -70 -128 -114 -200 -100 -59 11 -104 39 -165 104 -101 106 -145 244
-113 353 44 152 163 214 293 154z"/>
<path d="M3865 9107 c-121 -40 -199 -122 -230 -242 -51 -199 43 -423 212 -507
56 -27 77 -32 137 -32 249 1 427 285 345 550 -17 56 -31 77 -79 126 -81 81
-150 111 -260 115 -52 2 -101 -2 -125 -10z m245 -86 c57 -29 115 -84 143 -136
32 -59 30 -215 -3 -300 -63 -160 -237 -238 -377 -167 -133 69 -212 259 -173
421 20 85 92 166 177 197 56 21 177 13 233 -15z"/>
<path d="M2707 8963 c-89 -122 -141 -296 -167 -562 -13 -129 -13 -148 0 -135
5 5 23 88 40 184 47 266 72 355 141 491 16 34 28 63 26 65 -3 3 -20 -17 -40
-43z"/>
<path d="M4440 8777 c0 -4 15 -38 34 -75 18 -37 48 -105 64 -152 54 -149 98
-260 107 -268 30 -27 -45 230 -105 363 -24 53 -99 152 -100 132z"/>
<path d="M3454 8361 c-174 -100 -232 -351 -130 -568 63 -131 163 -203 286
-203 143 0 235 85 275 252 38 162 -4 334 -110 447 -97 103 -218 130 -321 72z
m214 -40 c65 -34 113 -95 152 -196 19 -49 24 -80 24 -171 1 -108 0 -113 -34
-179 -46 -90 -92 -127 -165 -133 -78 -6 -137 13 -195 65 -91 82 -135 188 -134
328 0 102 18 155 75 220 69 78 195 108 277 66z"/>
<path d="M3514 8275 c-22 -22 -25 -32 -20 -63 8 -49 46 -86 90 -86 75 0 102
75 49 134 -40 44 -84 49 -119 15z m96 -35 c50 -50 -10 -111 -62 -63 -18 16
-25 63 -11 76 13 14 54 6 73 -13z"/>
<path d="M3691 8074 c-46 -59 -14 -164 50 -164 58 0 100 72 79 136 -20 60 -92
75 -129 28z m93 -36 c12 -33 -1 -76 -26 -92 -23 -14 -58 18 -58 53 0 65 65 95
84 39z"/>
<path d="M3396 8054 c-21 -20 -21 -93 0 -122 21 -31 58 -44 88 -32 46 17 45
86 -1 140 -28 33 -63 39 -87 14z m51 -22 c20 -12 46 -83 35 -94 -29 -29 -80
27 -68 75 7 28 13 32 33 19z"/>
<path d="M3550 7850 c-19 -19 -22 -30 -18 -71 6 -63 37 -99 84 -99 42 0 64 30
64 87 0 79 -82 131 -130 83z m84 -42 c33 -46 7 -116 -32 -91 -25 15 -45 61
-38 89 8 31 49 33 70 2z"/>
<path d="M2819 8340 c-65 -11 -139 -52 -182 -99 -104 -116 -84 -351 39 -460
78 -69 170 -86 289 -55 168 43 277 166 279 313 1 164 -127 289 -314 304 -36 3
-86 2 -111 -3z m202 -87 c59 -26 115 -76 140 -124 28 -57 25 -111 -13 -181
-54 -102 -165 -168 -284 -168 -71 0 -110 17 -156 68 -51 57 -70 105 -71 182
-1 121 58 204 173 241 42 14 161 4 211 -18z"/>
<path d="M4235 8296 c-109 -26 -222 -113 -266 -204 -31 -64 -37 -163 -14 -233
21 -63 96 -144 165 -176 69 -34 244 -66 310 -58 160 20 259 153 248 334 -16
248 -209 394 -443 337z m169 -60 c65 -20 108 -51 144 -105 65 -97 81 -235 38
-327 -35 -75 -73 -98 -168 -103 -188 -8 -333 52 -389 160 -22 43 -25 118 -7
170 30 90 127 176 228 203 71 19 96 19 154 2z"/>
<path d="M2651 7697 c-1 -27 65 -257 99 -346 36 -93 78 -161 133 -218 60 -62
65 -53 12 21 -55 78 -88 150 -149 324 -53 152 -94 245 -95 219z"/>
<path d="M4686 7620 c-3 -19 -7 -75 -9 -125 -3 -49 -12 -116 -22 -148 -26 -90
-14 -99 25 -17 34 72 35 79 34 181 -2 113 -17 175 -28 109z"/>
<path d="M3947 7626 c-81 -30 -148 -103 -189 -205 -18 -45 -22 -77 -22 -161
-1 -95 2 -111 27 -162 62 -127 168 -207 287 -216 98 -7 160 17 231 87 75 76
103 145 104 261 0 77 -3 92 -33 153 -42 84 -138 184 -213 220 -68 33 -141 42
-192 23z m181 -97 c69 -34 123 -90 158 -164 32 -67 38 -121 24 -191 -28 -137
-104 -215 -216 -222 -34 -2 -79 1 -100 8 -51 17 -130 93 -161 154 -34 68 -42
179 -18 261 47 165 171 226 313 154z"/>
<path d="M3199 7579 c-82 -19 -158 -78 -197 -154 -20 -41 -25 -64 -26 -126 0
-67 4 -83 37 -150 78 -156 218 -279 320 -279 123 0 277 172 309 348 31 165
-56 310 -215 357 -54 16 -169 18 -228 4z m222 -74 c59 -21 105 -59 131 -108
18 -34 23 -57 22 -122 -1 -108 -29 -181 -98 -251 -85 -87 -166 -92 -267 -18
-80 59 -169 211 -169 289 0 97 54 176 140 205 68 24 181 26 241 5z"/>
<path d="M4450 7020 c-121 -151 -227 -227 -370 -266 -69 -18 -264 -25 -375
-12 l-60 6 60 -20 c91 -32 322 -32 420 -1 127 40 248 135 334 261 40 60 74
122 67 122 -2 0 -37 -40 -76 -90z"/>
<path d="M5847 8594 c-246 -55 -387 -242 -387 -514 0 -219 93 -388 254 -465
94 -44 153 -55 294 -55 302 1 448 97 497 327 24 112 35 103 -124 103 l-138 0
-6 -40 c-8 -63 -50 -125 -101 -149 -106 -52 -259 -33 -328 40 -49 52 -68 117
-68 239 0 127 19 189 73 244 48 48 99 66 183 66 142 0 217 -55 239 -173 l7
-37 135 0 136 0 -7 56 c-28 241 -179 359 -471 370 -85 3 -140 -1 -188 -12z"/>
<path d="M8973 8599 c-139 -23 -246 -97 -282 -195 -42 -110 -18 -245 56 -316
69 -65 114 -80 318 -103 89 -11 151 -23 170 -34 81 -47 65 -155 -28 -190 -46
-18 -157 -13 -203 8 -46 21 -81 64 -90 110 l-6 31 -129 0 c-149 0 -143 6 -109
-103 37 -119 144 -208 285 -237 33 -7 105 -12 161 -12 166 0 268 29 344 98 76
69 107 170 88 288 -25 161 -115 224 -361 251 -73 8 -147 17 -166 21 -78 13
-109 103 -53 157 37 35 109 50 179 38 69 -13 106 -40 127 -91 l16 -41 128 3
127 3 -3 25 c-14 111 -99 219 -204 258 -105 39 -244 51 -365 31z"/>
<path d="M6580 8505 l0 -75 135 0 135 0 0 75 0 75 -135 0 -135 0 0 -75z"/>
<path d="M11250 8505 l0 -75 135 0 135 0 0 75 0 75 -135 0 -135 0 0 -75z"/>
<path d="M7369 8347 c-65 -19 -135 -74 -167 -132 -9 -16 -11 -7 -12 48 l0 67
-130 0 -130 0 0 -375 0 -375 129 0 130 0 3 223 c3 198 5 226 23 261 26 51 62
77 117 83 59 7 112 -16 134 -59 16 -28 19 -67 22 -270 l4 -238 124 0 124 0 0
273 c0 313 -6 346 -70 419 -22 26 -58 53 -82 63 -56 22 -162 28 -219 12z"/>
<path d="M8094 8346 c-201 -46 -303 -191 -292 -416 8 -165 73 -270 207 -334
65 -30 69 -31 211 -31 129 1 152 3 204 24 70 28 142 90 167 146 35 75 35 75
-102 75 -119 0 -122 -1 -142 -26 -42 -54 -137 -70 -213 -35 -40 18 -64 52 -79
114 l-7 27 287 0 288 0 -6 88 c-3 48 -13 110 -21 139 -31 98 -122 189 -219
218 -74 23 -209 28 -283 11z m196 -174 c40 -20 80 -74 80 -108 l0 -24 -159 0
-159 0 10 38 c25 93 138 140 228 94z"/>
<path d="M9874 8346 c-116 -27 -193 -80 -230 -161 -13 -27 -24 -62 -24 -77 l0
-28 120 0 120 0 14 34 c18 43 50 64 107 71 86 11 151 -32 130 -87 -6 -15 -18
-31 -28 -36 -10 -6 -83 -22 -162 -37 -80 -14 -167 -35 -193 -47 -84 -36 -128
-106 -128 -204 0 -50 40 -133 79 -161 111 -83 319 -62 406 40 19 22 35 47 35
55 0 9 3 12 8 8 4 -4 9 -35 12 -69 l5 -62 110 -3 111 -3 -3 128 c-2 70 -4 200
-6 288 -3 135 -6 167 -23 205 -44 97 -144 148 -303 155 -62 3 -118 0 -157 -9z
m241 -433 c-10 -74 -23 -107 -53 -136 -80 -77 -202 -57 -202 34 0 48 24 74 82
89 74 19 143 42 153 51 20 19 26 7 20 -38z"/>
<path d="M12033 8342 c-65 -23 -114 -61 -145 -109 l-23 -38 -3 68 -3 67 -129
0 -130 0 0 -375 0 -375 130 0 130 0 0 173 c1 263 13 318 82 370 40 30 115 33
156 7 57 -35 62 -62 62 -320 l0 -230 131 0 130 0 -3 283 c-4 310 -9 337 -68
409 -63 77 -209 109 -317 70z"/>
<path d="M12741 8349 c-117 -23 -207 -105 -242 -221 -17 -56 -20 -88 -17 -171
5 -129 36 -205 110 -272 120 -108 345 -110 458 -5 l30 28 0 -93 c0 -85 -2 -96
-25 -124 -34 -40 -83 -55 -163 -48 -73 6 -109 26 -132 75 l-15 32 -122 0 -123
0 0 -27 c0 -44 43 -125 85 -162 85 -75 218 -108 382 -97 181 13 287 67 340
173 l28 58 3 418 3 417 -131 0 -130 0 0 -39 0 -39 -30 28 c-70 66 -190 93
-309 69z m277 -215 c45 -29 62 -72 62 -159 0 -132 -43 -179 -164 -179 -130 -1
-176 46 -176 176 0 112 28 158 106 177 49 12 142 4 172 -15z"/>
<path d="M13649 8350 c-53 -9 -126 -39 -169 -70 -68 -49 -95 -192 -51 -278 43
-83 105 -112 291 -132 57 -6 117 -18 132 -26 53 -27 49 -96 -8 -120 -76 -32
-186 0 -213 64 l-15 32 -117 0 -117 0 9 -41 c14 -60 33 -92 82 -135 74 -65
128 -79 302 -79 132 1 157 3 207 23 117 47 174 155 149 281 -13 63 -33 96 -81
129 -41 28 -81 38 -195 51 -161 19 -176 22 -196 42 -26 26 -24 55 6 84 21 22
33 25 95 25 66 0 74 -2 101 -29 16 -16 29 -37 29 -45 0 -14 17 -16 121 -16
l121 0 -7 33 c-16 74 -65 137 -133 172 -77 38 -230 54 -343 35z"/>
<path d="M6580 7955 l0 -375 130 0 130 0 0 375 0 375 -130 0 -130 0 0 -375z"/>
<path d="M10497 7955 l125 -375 186 2 185 3 119 355 c65 195 121 363 124 373
5 16 -5 17 -118 17 l-124 0 -89 -277 -90 -277 -90 277 -89 277 -132 0 -132 0
125 -375z"/>
<path d="M11260 7955 l0 -375 130 0 130 0 0 375 0 375 -130 0 -130 0 0 -375z"/>
</g>
</svg>
